<?xml version="1.0" standalone="no"?>
<!DOCTYPE svg PUBLIC "-//W3C//DTD SVG 20010904//EN"
 "http://www.w3.org/TR/2001/REC-SVG-20010904/DTD/svg10.dtd">
<svg version="1.0" xmlns="http://www.w3.org/2000/svg"
 width="260.000000pt" height="260.000000pt" viewBox="0 0 260.000000 260.000000"
 preserveAspectRatio="xMidYMid meet">
<metadata>
Created by potrace 1.14, written by Peter Selinger 2001-2017
</metadata>
<g transform="translate(0.000000,260.000000) scale(0.100000,-0.100000)"
fill="#000000" stroke="none">
<path d="M0 1300 l0 -1300 1300 0 1300 0 0 1300 0 1300 -1300 0 -1300 0 0
-1300z m820 620 c54 -15 133 -54 178 -88 l32 -24 0 -124 0 -124 -64 0 c-71 0
-69 -2 -81 80 -13 98 -14 99 -66 126 -96 48 -246 49 -331 2 -81 -45 -116 -138
-83 -224 28 -73 83 -105 280 -164 200 -59 311 -133 365 -245 35 -71 35 -199 1
-267 -66 -134 -213 -209 -408 -209 -145 0 -270 35 -383 106 l-40 25 0 135 0
135 64 0 c72 0 67 7 81 -100 13 -97 12 -96 74 -124 103 -46 249 -54 342 -18
37 15 87 60 106 96 21 41 21 132 0 173 -34 64 -93 96 -282 150 -269 77 -385
189 -385 369 0 170 149 315 341 332 85 8 194 0 259 -18z m855 -50 l0 -55 -63
-11 c-34 -6 -65 -14 -68 -16 -2 -3 -3 -121 -2 -263 l3 -258 232 259 c128 143
233 264 233 269 1 6 -16 12 -37 15 l-38 5 0 55 0 55 203 3 203 2 -3 -57 -3
-57 -59 -12 c-32 -6 -66 -20 -75 -30 -10 -11 -95 -103 -190 -207 l-173 -187
217 -290 216 -289 55 -7 54 -6 0 -59 0 -59 -207 2 -208 3 0 55 0 55 48 3 c26
2 47 5 47 8 0 11 -322 454 -330 454 -5 0 -49 -44 -99 -98 l-91 -97 2 -125 3
-125 65 -10 65 -10 0 -55 0 -55 -225 0 -225 0 0 55 0 55 65 10 65 10 3 492 2
493 -22 4 c-13 3 -43 9 -68 13 -44 8 -45 9 -48 52 -6 75 -18 72 230 69 l223
-3 0 -55z"/>
</g>
</svg>
